<svg t="1640333349300" class="icon" viewBox="0 0 1024 1024" version="1.1" xmlns="http://www.w3.org/2000/svg" p-id="5019" width="48" height="48"><path d="M512 62c-248.58 0-450 201.42-450 450s201.42 450 450 450 450-201.42 450-450-201.42-450-450-450zM281.060 750.5c-13.14 0-23.94-10.62-23.94-23.94s10.62-23.94 23.94-23.94 23.94 10.62 23.94 23.94-10.62 23.94-23.94 23.94zM359.36 251.18l-0.36 0.36c-127.26 84.96-174.6 250.38-111.060 389.7v0.36c2.52 22.32-23.4 36.54-40.86 22.14v0c-75.78-162-20.34-355.5 129.24-453.060v0c23.040-4.14 38.34 23.040 23.040 40.5zM686.96 593.54l-0.72 1.26c-5.4 9.54-17.64 12.96-27.18 7.56l-136.26-77.58c-5.58-3.060-9-8.46-9.9-14.4-0.54-2.16-0.9-4.32-0.9-6.66v-304.92c0-13.86 11.34-25.2 25.2-25.2s25.2 11.34 25.2 25.2v300.78l117 66.6c9.72 5.58 12.96 17.82 7.56 27.36z" p-id="5020"></path></svg>