<svg t="1640333249849" class="icon" viewBox="0 0 1024 1024" version="1.1" xmlns="http://www.w3.org/2000/svg" p-id="3518" width="48" height="48"><path d="M517.3248 591.0016c29.4912 0 64.9216 5.7856 64.9216 5.7856 5.9392 0 8.8576 5.8368 8.8576 11.7248 0 2.9696-11.8272 55.6032-44.3392 87.7568 8.8576 32.2048 53.1456 169.6768 64.9728 254.5152 0 2.9696 0 5.8368-2.9696 8.7552 0 0-23.6032 29.2864-82.6368 61.44 0 2.9696-2.9696 2.9696-2.9696 2.9696h-11.776c-56.1152-32.2048-85.6064-64.4096-85.6064-64.4096-2.9696-2.8672-2.9696-5.7856-2.9696-8.7552 8.8576-84.8384 56.1152-225.28 64.9728-254.5152-32.4096-35.1232-44.2368-84.8384-44.2368-87.7568 0-5.8368 2.9184-11.7248 8.8064-11.7248 2.9696 0.0512 35.4816-5.7856 64.9728-5.7856z m0-591.0016c147.5584 0 265.6768 117.0432 265.6768 263.3216a261.89824 261.89824 0 0 1-133.7856 228.9664c202.7008 49.8688 316.7744 219.4944 316.7744 481.9456 5.8368 20.48-11.8272 37.9904-32.4096 37.9904-20.9408-0.256-37.888-17.0496-38.4-37.9904 0-158.0032-50.176-424.2432-377.8048-424.2432h-5.9392c-277.4528 0-377.8048 219.4432-377.8048 424.2432 0 20.48-17.7152 37.9904-38.4 37.9904a38.93248 38.93248 0 0 1-38.3488-37.9904c0-197.0176 88.0128-424.5504 326.656-483.1232a261.74464 261.74464 0 0 1-131.8912-227.7888C251.6992 117.0432 369.7664 0 517.3248 0z m0 73.1648c-106.2912 0-191.8976 84.8384-191.8976 190.1568s85.6064 190.1056 191.8976 190.1056c106.1888 0 191.8464-84.8384 191.8464-190.1056 0-105.3184-85.6064-190.1568-191.8464-190.1568z" p-id="3519"></path></svg>